#!OML:ASF H:\Terrain\Patient Classification 1\Walking\steve\steve.ASF
:FULLY-SPECIFIED
:DEGREES
107
root 7.68244 15.6649 -6.78164 6.03484 3.74919 5.56595
lowerback 1.80498 -1.2451 -5.12287
upperback -3.07291 -1.85283 0.242533
thorax -4.02337 -0.7587 3.21702
lowerneck -9.94847 -0.87904 -2.47102
upperneck 14.1321 -1.12449 2.12522
head 5.93915 -0.516054 0.987354
rclavicle 6.69035e-015 -4.37326e-015
rhumerus -81.3427 -31.1227 -25.02
rradius 15.9254
rwrist 40.2679
rhand 173.554 -68.935
rfingers 7.12502
rthumb -160.597 -39.8831
lclavicle 6.69035e-015 -4.37326e-015
lhumerus -9.19623 -8.1113 82.1819
lradius 57.9461
lwrist 24.0012
lhand -26.6203 -18.6056
lfingers 7.12502
lthumb -0.0533415 11.3742
rfemur -43.44 -0.0175137 17.8967
rtibia 29.7835
rfoot -7.70822 5.79354
rtoes -0.796068
lfemur 24.1113 -1.28824 -28.1131
ltibia 4.45278e-014
lfoot 2.95145 -7.72949
ltoes -4.63284
108
root 7.68439 15.6682 -6.51177 5.99856 3.62494 5.49196
lowerback 1.87067 -1.21171 -4.76824
upperback -3.11722 -1.79959 0.237573
thorax -4.12039 -0.740008 3.01315
lowerneck -10.1865 -0.829544 -2.426
upperneck 14.3157 -1.04673 2.03041
head 6.03542 -0.481929 0.956094
rclavicle 1.1104e-014 -2.50469e-014
rhumerus -81.8258 -31.3298 -23.9831
rradius 15.7166
rwrist 41.6343
rhand 173.232 -68.7123
rfingers 7.12502
rthumb -160.906 -39.6295
lclavicle 1.1104e-014 -2.50469e-014
lhumerus -9.86633 -8.63513 81.8229
lradius 59.1258
lwrist 24.9764
lhand -27.3282 -19.0217
lfingers 7.12502
lthumb -0.737033 10.9568
rfemur -43.5276 0.528757 17.8189
rtibia 31.2847
rfoot -6.45957 4.27384
rtoes -0.73787
lfemur 24.7852 -1.44329 -28.0443
ltibia 0
lfoot 5.67385 -6.89558
ltoes -4.85701
109
root 7.68584 15.6788 -6.24527 6.12021 3.35039 5.3236
lowerback 1.86456 -1.09153 -4.40523
upperback -3.35324 -1.62373 0.404939
thorax -4.38183 -0.65072 2.97806
lowerneck -9.70641 -0.789404 -2.80144
upperneck 13.9041 -0.932688 1.99506
head 5.82249 -0.451019 1.01582
rclavicle 6.69209e-015 1.98785e-014
rhumerus -81.9019 -31.1825 -23.1879
rradius 15.4228
rwrist 42.6156
rhand 173.07 -68.5425
rfingers 7.12502
rthumb -161.062 -39.4445
lclavicle 6.69209e-015 1.98785e-014
lhumerus -10.8372 -8.40607 82.1098
lradius 59.903
lwrist 25.443
lhand -27.3216 -19.2483
lfingers 7.12502
lthumb -0.730691 10.7302
rfemur -43.8367 1.51815 17.6108
rtibia 32.8359
rfoot -5.73645 3.21244
rtoes 0.0249993
lfemur 25.1764 -1.48097 -27.8325
ltibia -3.18055e-015
lfoot 9.30989 -4.55687
ltoes 2.24456
110
root 7.69377 15.672 -5.98487 6.23391 3.05189 4.97264
lowerback 1.75867 -1.00036 -3.87182
upperback -3.49271 -1.46764 0.671506
thorax -4.48387 -0.581849 2.94673
lowerneck -9.26848 -0.661323 -3.41532
upperneck 13.4472 -0.712405 2.2671
head 5.60196 -0.356242 1.21852
rclavicle -9.12391e-015 7.95139e-015
rhumerus -82.2354 -31.6346 -21.3305
rradius 15.0277
rwrist 44.9064
rhand 173.186 -68.726
rfingers 7.12502
rthumb -160.951 -39.6389
lclavicle -9.12391e-015 7.95139e-015
lhumerus -11.7556 -7.82237 82.493
lradius 60.5926
lwrist 26.0053
lhand -27.0255 -19.3611
lfingers 7.12502
lthumb -0.444703 10.6182
rfemur -44.0239 2.18836 17.7771
rtibia 34.3723
rfoot -5.00807 2.8163
rtoes 1.23022
lfemur 20.7739 -1.46462 -27.3367
ltibia 9.5159
lfoot 9.69923 -4.23105
ltoes 9.48708
111
root 7.70004 15.6488 -5.73069 6.24928 2.75019 4.48703
lowerback 1.64585 -0.923645 -3.1779
upperback -3.44005 -1.32522 0.854789
thorax -4.38363 -0.534515 2.73632
lowerneck -9.63812 -0.636415 -3.52393
upperneck 13.5944 -0.646733 2.24068
head 5.7097 -0.330326 1.23336
rclavicle -2.37027e-014 1.35174e-014
rhumerus -82.4 -32.3833 -20.159
rradius 14.7682
rwrist 47.04
rhand 173.546 -68.9073
rfingers 7.12502
rthumb -160.604 -39.8547
lclavicle -2.37027e-014 1.35174e-014
lhumerus -12.4773 -7.59047 82.6014
lradius 61.2321
lwrist 26.8445
lhand -27.3839 -19.3738
lfingers 7.12502
lthumb -0.790901 10.6045
rfemur -44.0014 2.47517 18.3496
rtibia 35.8397
rfoot -4.38358 2.79216
rtoes 3.98955
lfemur 18.0987 -1.40732 -26.7562
ltibia 16.0649
lfoot 11.7176 -1.97446
ltoes 17.6836
112
root 7.70495 15.6449 -5.48072 6.18972 2.44389 4.06161
lowerback 1.59257 -0.773836 -2.41975
upperback -3.27127 -1.09061 0.910462
thorax -4.20351 -0.447342 2.35285
lowerneck -10.343 -0.750765 -3.27219
upperneck 13.9116 -0.746994 1.75296
head 5.93111 -0.4007 1.0304
rclavicle 2.40747e-014 -3.97569e-015
rhumerus -82.3524 -33.2448 -19.9482
rradius 14.7642
rwrist 48.309
rhand 173.935 -69.087
rfingers 7.12502
rthumb -160.23 -40.0724
lclavicle 2.40747e-014 -3.97569e-015
lhumerus -13.2085 -7.72508 82.7167
lradius 61.7794
lwrist 27.5709
lhand -27.8301 -18.8896
lfingers 7.12502
lthumb -1.22183 11.0867
rfemur -43.894 2.52636 18.9873
rtibia 37.3257
rfoot -4.27032 3.08445
rtoes 7.30176
lfemur 15.7922 -1.179 -26.2507
ltibia 21.577
lfoot 13.9108 1.20553
ltoes 18.1673
113
root 7.7106 15.6681 -5.23192 5.97455 2.20474 3.86568
lowerback 1.77453 -0.63287 -1.91095
upperback -3.07365 -0.885965 0.896051
thorax -4.1192 -0.365177 2.04256
lowerneck -10.7798 -0.772423 -2.94609
upperneck 13.8333 -0.739226 1.25244
head 5.97851 -0.416227 0.818167
rclavicle -1.25359e-014 -3.97569e-015
rhumerus -82.1154 -34.1218 -20.1594
rradius 14.8237
rwrist 49.2156
rhand 174.139 -69.2741
rfingers 7.12502
rthumb -160.034 -40.2798
lclavicle -1.25359e-014 -3.97569e-015
lhumerus -14.0217 -7.64236 82.918
lradius 62.1437
lwrist 27.8242
lhand -28.0875 -18.3412
lfingers 7.12502
lthumb -1.47045 11.6334
rfemur -43.5601 2.37681 19.4142
rtibia 38.8455
rfoot -4.686 3.77957
rtoes 8.16564
lfemur 13.6756 -0.805446 -25.8721
ltibia 26.3839
lfoot 16.7657 2.74748
ltoes 10.6864
114
root 7.71439 15.681 -4.98721 5.7124 1.9761 3.94626
lowerback 2.59125 -0.534163 -1.83542
upperback -3.31589 -0.765539 0.896645
thorax -4.84308 -0.296299 2.00834
lowerneck -10.13 -0.562723 -2.98645
upperneck 13.2265 -0.47341 1.30016
head 5.67087 -0.283848 0.860964
rclavicle -6.00237e-015 -3.18055e-015
rhumerus -81.1025 -33.9397 -21.6382
rradius 14.8476
rwrist 48.9378
rhand 174.191 -69.2658
rfingers 7.12502
rthumb -159.984 -40.2768
lclavicle -6.00237e-015 -3.18055e-015
lhumerus -15.5474 -7.32485 83.3832
lradius 62.2507
lwrist 27.6324
lhand -28.3156 -17.8762
lfingers 7.12502
lthumb -1.69068 12.0969
rfemur -43.0459 2.12855 19.5882
rtibia 40.201
rfoot -4.83325 4.81675
rtoes 9.31567
lfemur 11.7696 -0.409942 -25.6979
ltibia 30.7801
lfoot 19.8816 3.61841
ltoes 7.61339
115
root 7.71883 15.6893 -4.7483 5.48572 1.79945 4.01711
lowerback 2.65722 -0.382993 -1.67991
upperback -3.07659 -0.556634 0.880919
thorax -4.64196 -0.202656 1.88951
lowerneck -9.05359 -0.30364 -3.41497
upperneck 11.7892 -0.160174 1.82758
head 5.03384 -0.109378 1.11473
rclavicle 3.84524e-015 -1.66979e-014
rhumerus -80.0482 -34.6186 -22.7773
rradius 14.8882
rwrist 48.701
rhand 174.347 -69.3584
rfingers 7.12502
rthumb -159.834 -40.3851
lclavicle 3.84524e-015 -1.66979e-014
lhumerus -16.0517 -7.39074 83.8331
lradius 61.9108
lwrist 27.7153
lhand -28.3623 -17.1856
lfingers 7.12502
lthumb -1.73587 12.7871
rfemur -42.4492 1.83818 19.8248
rtibia 41.3004
rfoot -5.02638 5.71789
rtoes 9.42008
lfemur 9.94246 -0.0272697 -25.5491
ltibia 34.8718
lfoot 22.5331 5.71082
ltoes 8.16617
116
root 7.722 15.7183 -4.5118 5.25239 1.60887 3.51605
lowerback 2.83254 -0.181373 -1.05602
upperback -2.96712 -0.252111 1.0195
thorax -4.64216 -0.0706907 1.66297
lowerneck -7.8876 0.00511623 -3.02221
upperneck 10.856 0.229633 1.33961
head 4.54112 0.0701342 0.919876
rclavicle 6.62201e-015 3.18055e-015
rhumerus -78.6826 -34.9899 -24.8722
rradius 15.1915
rwrist 47.1858
rhand 174.411 -69.4579
rfingers 7.12502
rthumb -159.773 -40.491
lclavicle 6.62201e-015 3.18055e-015
lhumerus -16.7393 -7.76671 84.2416
lradius 61.553
lwrist 28.3465
lhand -28.2077 -16.661
lfingers 7.12502
lthumb -1.58652 13.3129
rfemur -41.6507 1.71347 20.6855
rtibia 42.1028
rfoot -5.69369 6.10575
rtoes 6.59698
lfemur 8.18235 0.143659 -24.9332
ltibia 38.6947
lfoot 23.7186 9.8101
ltoes 12.4123
117
root 7.71897 15.7547 -4.27496 4.97884 1.44063 2.87681
lowerback 3.27461 -0.00135217 -0.513483
upperback -2.97212 0.0250648 1.22464
thorax -4.90882 0.0540999 1.55315
lowerneck -9.03458 -0.845124 -3.58711
upperneck 12.2167 -0.861053 1.75537
head 5.18308 -0.467515 1.07232
rclavicle 1.09114e-014 -3.97569e-015
rhumerus -76.5703 -34.8159 -28.2294
rradius 15.5138
rwrist 44.6562
rhand 174.352 -69.4485
rfingers 7.12502
rthumb -159.829 -40.4757
lclavicle 1.09114e-014 -3.97569e-015
lhumerus -17.765 -8.18698 84.7389
lradius 61.253
lwrist 29.0073
lhand -28.1752 -16.4172
lfingers 7.12502
lthumb -1.55509 13.5568
rfemur -40.5652 1.83822 21.5791
rtibia 42.5818
rfoot -6.53272 6.22683
rtoes 4.89923
lfemur 6.58737 0.353265 -24.1215
ltibia 42.2999
lfoot 22.5318 15.1508
ltoes 20.8509
118
root 7.71189 15.7947 -4.02944 4.62322 1.43815 2.53569
lowerback 3.3861 0.0948502 -0.284842
upperback -2.69704 0.169557 1.34806
thorax -4.6895 0.117912 1.54083
lowerneck -9.27211 -0.993847 -3.29647
upperneck 12.1571 -1.05728 1.47057
head 5.20725 -0.568053 0.921129
rclavicle -2.00276e-014 1.19271e-014
rhumerus -74.9323 -35.4805 -29.9327
rradius 15.3901
rwrist 44.1934
rhand 174.492 -69.6022
rfingers 7.12502
rthumb -159.694 -40.6436
lclavicle -2.00276e-014 1.19271e-014
lhumerus -18.2746 -8.39829 85.2436
lradius 60.3712
lwrist 28.9049
lhand -28.7087 -16.1711
lfingers 7.12502
lthumb -2.07037 13.7986
rfemur -39.1519 2.04013 22.0177
rtibia 42.7607
rfoot -7.32361 6.53322
rtoes 6.42009
lfemur 5.09826 0.71185 -23.476
ltibia 45.687
lfoot 20.1731 19.0097
ltoes 25.9619
119
root 7.70323 15.8397 -3.78168 4.4235 1.43975 1.99456
lowerback 3.26268 0.191364 0.301451
upperback -2.47362 0.328574 1.40337
thorax -4.38814 0.177436 1.25667
lowerneck -9.75528 -1.17614 -3.13059
upperneck 12.4592 -1.3176 1.49364
head 5.38835 -0.68559 0.880356
rclavicle -1.963e-015 -3.97569e-015
rhumerus -73.4854 -36.3144 -31.5329
rradius 15.2343
rwrist 44.1295
rhand 174.689 -69.5989
rfingers 7.12502
rthumb -159.505 -40.6606
lclavicle -1.963e-015 -3.97569e-015
lhumerus -18.5963 -8.0306 85.6153
lradius 58.8537
lwrist 27.9047
lhand -28.8608 -16.2024
lfingers 7.12502
lthumb -2.21726 13.7658
rfemur -37.815 2.19538 22.7053
rtibia 42.7581
rfoot -8.01958 6.90556
rtoes 8.00834
lfemur 3.31251 1.12561 -22.603
ltibia 48.8821
lfoot 19.612 18.8163
ltoes 21.9154
120
root 7.69158 15.8791 -3.54546 4.44823 1.27719 1.35219
lowerback 3.36806 0.372795 0.937319
upperback -2.58571 0.611215 1.46997
thorax -4.56471 0.299212 0.948361
lowerneck -9.85778 -1.34037 -3.29676
upperneck 12.9387 -1.57571 1.92309
head 5.56603 -0.790339 1.02218
rclavicle -4.54099e-015 -9.54166e-015
rhumerus -71.0002 -35.8783 -35.5315
rradius 15.598
rwrist 41.8613
rhand 174.666 -69.1455
rfingers 7.12502
rthumb -159.528 -40.2048
lclavicle -4.54099e-015 -9.54166e-015
lhumerus -19.2746 -8.10586 86.0082
lradius 57.2294
lwrist 27.3318
lhand -28.6229 -16.5521
lfingers 7.12502
lthumb -1.9875 13.4184
rfemur -36.8012 2.34176 23.5829
rtibia 42.6564
rfoot -8.69463 7.06675
rtoes 7.19056
lfemur 1.20952 1.52669 -21.7181
ltibia 51.8914
lfoot 19.0763 16.6925
ltoes 15.3994
121
root 7.68326 15.911 -3.31495 4.43739 1.11833 1.13652
lowerback 3.16671 0.57798 1.07409
upperback -2.40911 0.885542 1.48427
thorax -4.26765 0.432181 0.868796
lowerneck -9.79091 -1.48276 -3.36491
upperneck 12.9269 -1.79259 2.14922
head 5.55935 -0.883353 1.08791
rclavicle 5.41688e-015 0
rhumerus -68.2887 -35.8778 -39.2988
rradius 16.0598
rwrist 39.8499
rhand 174.328 -68.7785
rfingers 7.12502
rthumb -159.852 -39.8033
lclavicle 5.41688e-015 0
lhumerus -19.7055 -8.90658 86.5664
lradius 55.6715
lwrist 27.2705
lhand -28.8282 -16.6806
lfingers 7.12502
lthumb -2.18575 13.288
rfemur -35.7813 2.41708 23.9732
rtibia 42.4757
rfoot -9.34672 7.40624
rtoes 6.61338
lfemur -0.904798 1.84098 -21.3553
ltibia 54.7179
lfoot 17.1842 14.3654
ltoes 12.1635
